#!OML:ASF H:\charlestonDancing\Project 1\Capture day 1\Session 1\femaleDancer.ASF
:FULLY-SPECIFIED
:DEGREES
444
root -2.01938 17.815 5.08457 868.496 -78.9517 -857.436
lowerback 16.4987 -5.05901 -0.295837
upperback 2.58776 -6.87499 -0.473145
thorax -6.45269 -3.39585 1.15876
lowerneck 2.45104 -9.86582 -10.2104
upperneck -3.36212 -13.3332 13.6691
head 0.24618 -6.82789 5.6183
rclavicle -1.35174e-014 -3.18055e-015
rhumerus -42.7801 -8.76839 -56.6961
rradius 77.8218
rwrist -58.2224
rhand -5.00153 -27.2299
rfingers 7.12502
rthumb 20.7919 -56.1359
lclavicle -1.35174e-014 -3.18055e-015
lhumerus -10.1553 -1.64328 43.1343
lradius 62.182
lwrist 5.07473
lhand -26.7253 18.8761
lfingers 7.12502
lthumb -0.154759 48.8558
rfemur -27.5188 10.3932 27.5513
rtibia 35.0716
rfoot -25.7003 4.2535
rtoes -20.8506
lfemur -30.5061 2.36405 -15.4262
ltibia 38.8501
lfoot -14.213 -10.1852
ltoes -15.702
445
root -1.99459 17.741 5.02171 867.032 -79.9637 -857.038
lowerback 17.0605 -5.09404 -0.643893
upperback 2.94316 -7.01207 -0.651731
thorax -6.35622 -3.46625 1.22521
lowerneck 2.46854 -9.73522 -9.50441
upperneck -3.47442 -13.1192 12.7335
head 0.0701575 -6.71038 5.25245
rclavicle 3.57812e-014 6.36111e-015
rhumerus -43.8375 -9.18742 -56.5145
rradius 79.3682
rwrist -58.8945
rhand -6.90482 -28.103
rfingers 7.12502
rthumb 18.9624 -57.1987
lclavicle 3.57812e-014 6.36111e-015
lhumerus -4.62549 -3.39993 42.9661
lradius 62.4752
lwrist 5.32957
lhand -26.3238 18.0248
lfingers 7.12502
lthumb 0.232976 48.0044
rfemur -28.1744 10.6386 27.2374
rtibia 35.8166
rfoot -21.9701 4.89175
rtoes -18.2195
lfemur -30.2985 2.25365 -15.947
ltibia 40.3153
lfoot -14.7305 -10.6841
ltoes -18.2153
446
root -1.95337 17.6399 4.94989 865.372 -81.3754 -856.087
lowerback 17.2619 -5.20505 -1.19783
upperback 3.16687 -7.27513 -0.776189
thorax -6.16925 -3.59329 1.46123
lowerneck 2.66389 -9.59154 -9.30755
upperneck -3.66252 -12.9157 12.2667
head -0.0852899 -6.60723 5.11206
rclavicle -6.52014e-014 -3.02153e-014
rhumerus -44.999 -9.53466 -56.1731
rradius 81.0586
rwrist -59.4777
rhand -8.81208 -28.9539
rfingers 7.12502
rthumb 17.1273 -58.219
lclavicle -6.52014e-014 -3.02153e-014
lhumerus 0.721903 -5.14597 42.7299
lradius 62.397
lwrist 5.02411
lhand -25.8973 17.3661
lfingers 7.12502
lthumb 0.644899 47.3449
rfemur -28.8669 10.3811 26.7396
rtibia 37.255
rfoot -19.2946 4.6857
rtoes -12.2786
lfemur -30.779 1.98343 -16.6947
ltibia 42.0718
lfoot -14.9735 -11.5242
ltoes -19.2419
447
root -1.92176 17.5208 4.88474 861.763 -82.5005 -853.716
lowerback 18.0095 -5.29052 -1.42656
upperback 3.44156 -7.45943 -0.868771
thorax -6.25538 -3.68472 1.58882
lowerneck 3.10256 -9.38658 -9.74673
upperneck -3.86428 -12.6696 12.4163
head -0.203681 -6.49376 5.26244
rclavicle 6.91771e-014 5.24792e-014
rhumerus -45.9657 -9.83816 -55.7528
rradius 82.4907
rwrist -59.7255
rhand -10.3695 -29.8509
rfingers 7.12502
rthumb 15.6278 -59.2397
lclavicle 6.91771e-014 5.24792e-014
lhumerus 5.73926 -6.9228 42.3669
lradius 62.1101
lwrist 4.54229
lhand -25.0163 16.7721
lfingers 7.12502
lthumb 1.49582 46.7466
rfemur -28.2564 9.49065 26.8612
rtibia 39.0462
rfoot -18.4945 3.20034
rtoes -7.7035
lfemur -30.7184 1.77345 -17.1404
ltibia 43.99
lfoot -15.0834 -12.5092
ltoes -18.2584
448
root -1.89593 17.3932 4.82343 857.09 -83.2124 -850.311
lowerback 18.8231 -5.33527 -1.35042
upperback 3.6452 -7.53075 -0.903376
thorax -6.48338 -3.72147 1.59849
lowerneck 3.50004 -9.11304 -10.0633
upperneck -3.98059 -12.3332 12.3551
head -0.324277 -6.32882 5.32981
rclavicle 3.18055e-015 1.90833e-014
rhumerus -47.2663 -9.93549 -55.2066
rradius 84.2607
rwrist -59.8433
rhand -11.4584 -30.7697
rfingers 7.12502
rthumb 14.5789 -60.2373
lclavicle 3.18055e-015 1.90833e-014
lhumerus 10.2347 -8.59185 41.9815
lradius 61.8144
lwrist 3.92521
lhand -23.8371 15.9282
lfingers 7.12502
lthumb 2.63469 45.8917
rfemur -27.6034 8.78557 27.3062
rtibia 40.8895
rfoot -20.5962 1.77769
rtoes -13.8633
lfemur -30.6639 1.79711 -17.2498
ltibia 46.0837
lfoot -15.2243 -13.6141
ltoes -16.7375
449
root -1.8979 17.3025 4.7709 853.773 -83.2018 -848.248
lowerback 19.3 -5.27194 -0.922811
upperback 3.90509 -7.38088 -0.870556
thorax -6.50907 -3.66418 1.39597
lowerneck 3.66373 -8.74056 -9.84786
upperneck -4.13139 -11.8299 11.5853
head -0.514955 -6.0635 5.09913
rclavicle -1.43125e-014 -1.74931e-014
rhumerus -48.5711 -9.89282 -54.6949
rradius 86.3229
rwrist -59.8668
rhand -12.487 -31.9027
rfingers 7.12502
rthumb 13.5877 -61.4393
lclavicle -1.43125e-014 -1.74931e-014
lhumerus 14.0413 -10.1116 41.5614
lradius 61.6554
lwrist 3.32974
lhand -22.9767 14.918
lfingers 7.12502
lthumb 3.46558 44.8696
rfemur -27.118 8.67148 28.0878
rtibia 42.4713
rfoot -20.5319 1.36495
rtoes -11.0978
lfemur -30.3404 2.40503 -16.9512
ltibia 48.1504
lfoot -15.5646 -14.7554
ltoes -15.4421
450
root -1.89725 17.2133 4.72328 848.926 -82.8286 -844.244
lowerback 19.4904 -5.33352 -0.0238338
upperback 4.03073 -7.27436 -0.669251
thorax -6.5586 -3.63001 1.10093
lowerneck 3.61803 -8.20552 -6.50541
upperneck -4.64073 -11.0405 6.92057
head -1.31451 -5.59136 3.54681
rclavicle 7.95139e-015 -3.02153e-014
rhumerus -49.5559 -9.92314 -54.2709
rradius 88.1949
rwrist -59.6928
rhand -13.3063 -33.0482
rfingers 7.12502
rthumb 12.7979 -62.6359
lclavicle 7.95139e-015 -3.02153e-014
lhumerus 17.0954 -11.4176 41.216
lradius 61.8141
lwrist 2.63991
lhand -21.9257 13.8876
lfingers 7.12502
lthumb 4.48047 43.8202
rfemur -26.8192 8.58573 29.2509
rtibia 43.6754
rfoot -20.4785 0.221266
rtoes -13.9234
lfemur -30.4373 3.13639 -16.1839
ltibia 50.1273
lfoot -15.7199 -15.8088
ltoes -14.5533
451
root -1.89683 17.1286 4.68107 845.614 -82.0564 -841.413
lowerback 19.5017 -5.38134 1.12334
upperback 3.99266 -7.08441 -0.371796
thorax -6.70345 -3.55435 0.741954
lowerneck 3.59092 -7.60907 -8.92441
upperneck -4.47498 -10.2818 9.48359
head -0.938323 -5.24519 4.37644
rclavicle 7.95139e-016 -9.54166e-015
rhumerus -50.2837 -10.0561 -53.9178
rradius 89.6582
rwrist -59.2909
rhand -13.7796 -33.7914
rfingers 7.12502
rthumb 12.3417 -63.4071
lclavicle 7.95139e-016 -9.54166e-015
lhumerus 19.3063 -12.5044 41.2686
lradius 62.4097
lwrist 1.92019
lhand -21.1117 12.9265
lfingers 7.12502
lthumb 5.26647 42.8411
rfemur -26.7139 8.61616 30.599
rtibia 44.5545
rfoot -20.8612 -0.408604
rtoes -13.9578
lfemur -30.7857 4.12566 -15.1171
ltibia 51.828
lfoot -15.7024 -16.7882
ltoes -13.7343
452
root -1.9039 17.0701 4.64449 845.66 -81.3985 -841.862
lowerback 19.4436 -5.33597 1.92231
upperback 3.93557 -6.85231 -0.190598
thorax -6.80063 -3.45488 0.433819
lowerneck 3.52531 -6.81299 -6.49636
upperneck -4.99755 -9.20368 5.91404
head -1.59805 -4.6433 3.22296
rclavicle -1.19271e-014 1.59028e-015
rhumerus -50.8976 -10.2284 -53.7187
rradius 90.8441
rwrist -58.5143
rhand -13.9379 -34.2514
rfingers 7.12502
rthumb 12.189 -63.8763
lclavicle -1.19271e-014 1.59028e-015
lhumerus 20.8037 -13.6199 41.4994
lradius 63.4428
lwrist 1.85458
lhand -21.5615 12.1638
lfingers 7.12502
lthumb 4.83221 42.0887
rfemur -26.5273 8.58852 31.5054
rtibia 45.1553
rfoot -21.5519 -0.298728
rtoes -12.0085
lfemur -30.9549 5.22619 -14.3978
ltibia 53.1541
lfoot -15.7327 -17.5747
ltoes -13.5913
